<mxfile host="65bd71144e">
    <diagram id="eR-Qtvk94U0Yo9fx3vLx" name="Page-1">
        <mxGraphModel dx="650" dy="1172" grid="1" gridSize="10" guides="1" tooltips="1" connect="1" arrows="0" fold="1" page="1" pageScale="1" pageWidth="850" pageHeight="1100" math="0" shadow="0">
            <root>
                <mxCell id="0"/>
                <mxCell id="1" parent="0"/>
                <mxCell id="17" style="edgeStyle=none;html=1;exitX=1;exitY=0.5;exitDx=0;exitDy=0;entryX=0;entryY=0.5;entryDx=0;entryDy=0;" edge="1" parent="1" source="cxmRrtGTWL4b0-NTS0eR-15" target="cxmRrtGTWL4b0-NTS0eR-72">
                    <mxGeometry relative="1" as="geometry"/>
                </mxCell>
                <mxCell id="19" style="edgeStyle=none;html=1;exitX=0.5;exitY=1;exitDx=0;exitDy=0;" edge="1" parent="1" source="cxmRrtGTWL4b0-NTS0eR-15">
                    <mxGeometry relative="1" as="geometry">
                        <mxPoint x="270.7874015748032" y="210" as="targetPoint"/>
                    </mxGeometry>
                </mxCell>
                <mxCell id="20" style="edgeStyle=none;html=1;exitX=0.5;exitY=1;exitDx=0;exitDy=0;" edge="1" parent="1" source="cxmRrtGTWL4b0-NTS0eR-15" target="cxmRrtGTWL4b0-NTS0eR-53">
                    <mxGeometry relative="1" as="geometry"/>
                </mxCell>
                <mxCell id="cxmRrtGTWL4b0-NTS0eR-15" value="Control system" style="swimlane;fontStyle=0;align=center;verticalAlign=top;childLayout=stackLayout;horizontal=1;startSize=25;horizontalStack=0;resizeParent=1;resizeParentMax=0;resizeLast=0;collapsible=0;marginBottom=0;html=1;" parent="1" vertex="1">
                    <mxGeometry x="260" y="130" width="140" height="33" as="geometry"/>
                </mxCell>
                <mxCell id="cxmRrtGTWL4b0-NTS0eR-20" value="" style="line;strokeWidth=1;fillColor=none;align=left;verticalAlign=middle;spacingTop=-1;spacingLeft=3;spacingRight=3;rotatable=0;labelPosition=right;points=[];portConstraint=eastwest;" parent="cxmRrtGTWL4b0-NTS0eR-15" vertex="1">
                    <mxGeometry y="25" width="140" height="8" as="geometry"/>
                </mxCell>
                <mxCell id="cxmRrtGTWL4b0-NTS0eR-53" value="Pump" style="swimlane;fontStyle=0;align=center;verticalAlign=top;childLayout=stackLayout;horizontal=1;startSize=25;horizontalStack=0;resizeParent=1;resizeParentMax=0;resizeLast=0;collapsible=0;marginBottom=0;html=1;" parent="1" vertex="1">
                    <mxGeometry x="355" y="210" width="140" height="33" as="geometry"/>
                </mxCell>
                <mxCell id="cxmRrtGTWL4b0-NTS0eR-59" value="" style="line;strokeWidth=1;fillColor=none;align=left;verticalAlign=middle;spacingTop=-1;spacingLeft=3;spacingRight=3;rotatable=0;labelPosition=right;points=[];portConstraint=eastwest;" parent="cxmRrtGTWL4b0-NTS0eR-53" vertex="1">
                    <mxGeometry y="25" width="140" height="8" as="geometry"/>
                </mxCell>
                <mxCell id="18" style="edgeStyle=none;html=1;exitX=0.5;exitY=1;exitDx=0;exitDy=0;entryX=0.5;entryY=0;entryDx=0;entryDy=0;" edge="1" parent="1" source="cxmRrtGTWL4b0-NTS0eR-68" target="cxmRrtGTWL4b0-NTS0eR-15">
                    <mxGeometry relative="1" as="geometry"/>
                </mxCell>
                <mxCell id="cxmRrtGTWL4b0-NTS0eR-68" value="Configuration" style="swimlane;fontStyle=0;align=center;verticalAlign=top;childLayout=stackLayout;horizontal=1;startSize=25;horizontalStack=0;resizeParent=1;resizeParentMax=0;resizeLast=0;collapsible=0;marginBottom=0;html=1;" parent="1" vertex="1">
                    <mxGeometry x="260" y="30" width="140" height="33" as="geometry"/>
                </mxCell>
                <mxCell id="cxmRrtGTWL4b0-NTS0eR-70" value="" style="line;strokeWidth=1;fillColor=none;align=left;verticalAlign=middle;spacingTop=-1;spacingLeft=3;spacingRight=3;rotatable=0;labelPosition=right;points=[];portConstraint=eastwest;" parent="cxmRrtGTWL4b0-NTS0eR-68" vertex="1">
                    <mxGeometry y="25" width="140" height="8" as="geometry"/>
                </mxCell>
                <mxCell id="cxmRrtGTWL4b0-NTS0eR-72" value="Display" style="swimlane;fontStyle=0;align=center;verticalAlign=top;childLayout=stackLayout;horizontal=1;startSize=25;horizontalStack=0;resizeParent=1;resizeParentMax=0;resizeLast=0;collapsible=0;marginBottom=0;html=1;" parent="1" vertex="1">
                    <mxGeometry x="470" y="130" width="140" height="33" as="geometry"/>
                </mxCell>
                <mxCell id="cxmRrtGTWL4b0-NTS0eR-74" value="" style="line;strokeWidth=1;fillColor=none;align=left;verticalAlign=middle;spacingTop=-1;spacingLeft=3;spacingRight=3;rotatable=0;labelPosition=right;points=[];portConstraint=eastwest;" parent="cxmRrtGTWL4b0-NTS0eR-72" vertex="1">
                    <mxGeometry y="25" width="140" height="8" as="geometry"/>
                </mxCell>
                <mxCell id="16" style="edgeStyle=none;html=1;exitX=1;exitY=0.5;exitDx=0;exitDy=0;entryX=0;entryY=0.5;entryDx=0;entryDy=0;" edge="1" parent="1" source="12" target="cxmRrtGTWL4b0-NTS0eR-15">
                    <mxGeometry relative="1" as="geometry"/>
                </mxCell>
                <mxCell id="12" value="Control Application" style="swimlane;fontStyle=0;align=center;verticalAlign=top;childLayout=stackLayout;horizontal=1;startSize=25;horizontalStack=0;resizeParent=1;resizeParentMax=0;resizeLast=0;collapsible=0;marginBottom=0;html=1;" vertex="1" parent="1">
                    <mxGeometry x="40" y="130" width="140" height="33" as="geometry"/>
                </mxCell>
                <mxCell id="13" value="" style="line;strokeWidth=1;fillColor=none;align=left;verticalAlign=middle;spacingTop=-1;spacingLeft=3;spacingRight=3;rotatable=0;labelPosition=right;points=[];portConstraint=eastwest;" vertex="1" parent="12">
                    <mxGeometry y="25" width="140" height="8" as="geometry"/>
                </mxCell>
                <mxCell id="14" value="Level sensor" style="swimlane;fontStyle=0;align=center;verticalAlign=top;childLayout=stackLayout;horizontal=1;startSize=25;horizontalStack=0;resizeParent=1;resizeParentMax=0;resizeLast=0;collapsible=0;marginBottom=0;html=1;" vertex="1" parent="1">
                    <mxGeometry x="180" y="210" width="140" height="33" as="geometry"/>
                </mxCell>
                <mxCell id="15" value="" style="line;strokeWidth=1;fillColor=none;align=left;verticalAlign=middle;spacingTop=-1;spacingLeft=3;spacingRight=3;rotatable=0;labelPosition=right;points=[];portConstraint=eastwest;" vertex="1" parent="14">
                    <mxGeometry y="25" width="140" height="8" as="geometry"/>
                </mxCell>
            </root>
        </mxGraphModel>
    </diagram>
</mxfile>